Coordinates
version=1
nRows=10
nColumns=23
inDegrees=yes

Units are S.I. units (second, meters, Newtons, ...)
If the header above contains a line with 'inDegrees', this indicates whether rotational values are in degrees (yes) or radians (no).

endheader
time	pelvis_tilt	pelvis_list	pelvis_rotation	pelvis_tx	pelvis_ty	pelvis_tz	hip_flexion_r	hip_adduction_r	hip_rotation_r	knee_angle_r	knee_angle_r_beta	ankle_angle_r	subtalar_angle_r	mtp_angle_r	hip_flexion_l	hip_adduction_l	hip_rotation_l	knee_angle_l	knee_angle_l_beta	ankle_angle_l	subtalar_angle_l	mtp_angle_l
     22.50000000	     -5.78715179	      1.57591980	      1.52751895	      2.19588901	      0.95650594	      1.06524603	     -4.57065818	     -2.84648141	    -21.43451032	     29.34087611	      0.51209489	     10.54480287	     -1.73385573	      0.00000000	     45.92300537	      3.17502471	      2.58546214	     95.21865627	      1.66187906	     -6.12909385	    -23.33822987	      0.00000000
     22.50666667	     -5.91297195	      2.41535311	      1.78789492	      2.19854607	      0.96096200	      1.06548885	     -7.45202470	     -3.38579210	    -22.09865459	     26.44106117	      0.46148358	      6.20518516	     -0.87036727	      0.00000000	     46.79147796	      3.86607265	      1.84179558	     91.07929489	      1.58963358	     -5.85134381	    -24.77778789	      0.00000000
     22.51333333	     -6.12087555	      3.01844300	      1.96503056	      2.20151039	      0.96534073	      1.06584717	    -10.19874014	     -3.56544216	    -22.45757698	     23.38228035	      0.40809778	      1.34089782	     -0.58897522	      0.00000000	     47.51340452	      4.20903613	      1.10074518	     86.70993972	      1.51337394	     -5.44103484	    -25.86690466	      0.00000000
     22.52000000	     -6.41663044	      3.49268404	      2.14748915	      2.20464330	      0.96942651	      1.06612287	    -12.70866813	     -3.66061708	    -22.98787241	     20.53607368	      0.35842210	     -3.46855453	     -0.07715546	      0.00000000	     48.11216012	      4.41341801	      0.37699082	     82.12928297	      1.43342640	     -5.00909816	    -26.64726224	      0.00000000
     22.52666667	     -6.78895080	      3.78376742	      2.33411511	      2.20784598	      0.97315718	      1.06631226	    -14.95198386	     -3.59189333	    -23.54413608	     17.98156834	      0.31383757	     -8.07936911	      0.30479067	      0.00000000	     48.59098184	      4.45204519	     -0.27623051	     77.37302970	      1.35041412	     -4.55334260	    -27.05370716	      0.00000000
     22.53333333	     -7.21707402	      3.96308616	      2.56841422	      2.21099089	      0.97644107	      1.06632012	    -16.85853236	     -3.51570503	    -24.40260098	     16.02522575	      0.27969295	    -12.05965852	      0.90716574	      0.00000000	     48.93578795	      4.47077108	     -0.82393688	     72.44266852	      1.26436308	     -4.16427798	    -27.13693930	      0.00000000
     22.54000000	     -7.62375207	      3.87669393	      2.78620766	      2.21400059	      0.97942431	      1.06625174	    -18.55744042	     -3.13680995	    -24.91442069	     14.43906933	      0.25200930	    -15.55606773	      0.69216625	      0.00000000	     49.08434657	      4.27988783	     -1.21666222	     67.39342718	      1.17623720	     -3.84377246	    -26.82195345	      0.00000000
     22.54666667	     -8.06403795	      3.62592661	      3.02452414	      2.21676411	      0.98186728	      1.06600300	    -19.88954166	     -2.65314933	    -25.26256035	     13.54532239	      0.23641047	    -18.35764591	     -0.06786781	      0.00000000	     49.11736704	      4.01898938	     -1.48313134	     62.25807880	      1.08660846	     -3.53391759	    -25.94517956	      0.00000000
     22.55333333	     -8.51583792	      3.30186653	      3.31741222	      2.21921735	      0.98372378	      1.06549106	    -20.77911207	     -2.29854629	    -26.00450528	     13.70946475	      0.23927530	    -20.01929966	     -0.50915160	      0.00000000	     49.01598149	      3.80787755	     -1.64449273	     57.05525306	      0.99580202	     -3.28304755	    -24.49025511	      0.00000000
     22.56000000	     -8.78929213	      2.86333149	      3.59079371	      2.22139735	      0.98532983	      1.06491865	    -21.57878884	     -1.83597901	    -26.34696548	     14.45314352	      0.25225494	    -21.07450223	     -1.65454565	      0.00000000	     48.57887916	      3.52862774	     -1.72350271	     51.83109404	      0.90462325	     -3.04588681	    -22.34058935	      0.00000000
